<?xml version="1.0" standalone="no"?>
<!DOCTYPE svg PUBLIC "-//W3C//DTD SVG 20010904//EN"
 "http://www.w3.org/TR/2001/REC-SVG-20010904/DTD/svg10.dtd">
<svg version="1.0" xmlns="http://www.w3.org/2000/svg"
 width="1020.000000pt" height="1020.000000pt" viewBox="0 0 1020.000000 1020.000000"
 preserveAspectRatio="xMidYMid meet">
<metadata>
Created by potrace 1.14, written by Peter Selinger 2001-2017
</metadata>
<g transform="translate(0.000000,1020.000000) scale(0.100000,-0.100000)"
fill="#000000" stroke="none">
<path d="M4487 9724 c-2 -3 -37 -6 -78 -9 -41 -3 -92 -7 -114 -10 -22 -2 -70
-7 -107 -11 -38 -4 -68 -10 -68 -13 0 -3 -15 -6 -33 -7 -31 -1 -77 -8 -142
-21 -16 -3 -41 -6 -55 -7 -14 -1 -27 -4 -30 -8 -3 -3 -20 -9 -37 -12 -18 -3
-48 -9 -65 -12 -18 -3 -40 -10 -49 -15 -9 -4 -19 -6 -22 -2 -4 3 -13 0 -22 -7
-8 -7 -15 -10 -15 -7 0 5 -217 -56 -255 -72 -11 -5 -78 -30 -150 -56 -142 -52
-376 -154 -386 -168 -3 -5 -10 -9 -15 -9 -10 -1 -136 -60 -144 -68 -4 -4 -29
-18 -115 -64 -11 -6 -22 -13 -25 -16 -3 -3 -21 -14 -40 -24 -60 -33 -338 -220
-350 -236 -3 -3 -27 -22 -55 -41 -27 -18 -52 -37 -55 -40 -3 -3 -36 -32 -75
-64 -38 -32 -78 -65 -87 -74 -9 -9 -51 -47 -94 -86 -161 -146 -346 -346 -487
-529 -43 -56 -84 -108 -90 -116 -35 -44 -157 -230 -157 -239 0 -6 -3 -11 -8
-11 -4 0 -18 -20 -31 -45 -13 -25 -28 -45 -33 -45 -5 0 -7 -4 -3 -9 3 -5 -1
-15 -8 -23 -13 -14 -62 -102 -100 -178 -12 -25 -26 -48 -30 -51 -5 -3 -9 -10
-8 -15 0 -5 -15 -40 -34 -79 -44 -93 -78 -168 -81 -180 -3 -9 -43 -112 -64
-160 -14 -33 -55 -157 -59 -177 -1 -5 -10 -32 -21 -60 -10 -29 -21 -64 -24
-78 -2 -14 -12 -47 -20 -75 -16 -50 -70 -290 -80 -355 -3 -19 -8 -46 -11 -60
-3 -14 -7 -47 -10 -75 -3 -27 -7 -57 -10 -65 -2 -8 -6 -42 -10 -75 -3 -33 -8
-80 -10 -105 -5 -51 -16 -219 -18 -297 -1 -29 1 -53 6 -53 4 0 4 -8 -1 -17 -5
-10 -7 -52 -6 -93 4 -125 14 -304 19 -340 3 -19 8 -62 11 -95 10 -105 12 -120
14 -120 1 0 3 -16 5 -36 4 -33 1 -38 -25 -49 -17 -7 -30 -16 -30 -21 0 -5 -5
-9 -11 -9 -20 0 -199 -159 -199 -176 0 -3 -13 -22 -30 -42 -44 -55 -80 -143
-106 -257 -12 -55 -14 -231 -2 -266 6 -19 13 -41 16 -49 3 -8 6 -21 8 -28 3
-14 65 -93 97 -122 26 -25 115 -68 156 -76 17 -4 34 -10 36 -14 3 -5 -13 -28
-35 -52 -44 -46 -141 -187 -139 -202 0 -5 -4 -12 -9 -15 -5 -3 -19 -35 -32
-70 -56 -161 -6 -261 135 -264 32 -1 143 21 160 31 6 4 15 7 20 8 6 1 48 16
95 34 47 17 90 32 95 34 6 1 16 5 23 10 15 9 32 -3 35 -25 3 -20 33 -97 63
-164 10 -22 18 -43 19 -47 0 -3 3 -10 8 -14 15 -15 6 -23 -40 -33 -27 -6 -56
-13 -67 -16 -29 -7 -138 -61 -165 -81 -85 -67 -159 -183 -165 -261 -1 -12 -4
-24 -7 -27 -2 -3 -4 -36 -3 -75 4 -128 76 -234 202 -297 32 -15 59 -29 62 -29
5 -2 17 -6 75 -28 17 -7 33 -12 38 -13 4 -1 8 -2 10 -4 1 -1 9 -3 17 -5 39 -7
150 -50 150 -57 0 -4 10 -8 22 -8 12 0 19 -3 15 -6 -3 -4 3 -14 14 -23 17 -14
20 -32 23 -171 3 -85 7 -171 9 -190 6 -49 34 -140 48 -156 6 -8 9 -14 5 -14
-6 0 10 -22 63 -82 18 -21 40 -38 47 -38 8 0 14 -4 14 -9 0 -5 17 -15 38 -21
20 -6 44 -14 52 -17 33 -13 135 -18 190 -10 82 13 121 21 181 40 45 14 47 14
65 -11 68 -91 191 -213 309 -305 51 -39 154 -107 164 -107 5 0 11 -3 13 -7 4
-11 185 -104 210 -108 12 -3 24 -8 27 -12 3 -5 11 -9 16 -10 6 -1 35 -12 65
-23 30 -12 84 -30 120 -42 36 -11 72 -23 80 -26 22 -8 25 -8 98 -26 73 -19
250 -53 317 -61 17 -2 53 -7 80 -11 237 -33 634 -36 985 -9 19 2 35 4 35 5 0
1 18 3 40 5 100 9 211 22 255 31 14 3 45 7 69 10 24 2 62 9 84 14 23 5 44 7
48 4 4 -2 10 0 14 6 4 6 10 8 14 6 4 -3 23 -1 42 4 43 11 107 23 137 24 12 1
22 4 22 7 0 3 6 6 13 7 17 1 67 10 97 17 14 3 36 8 50 11 52 11 408 104 455
119 28 9 61 18 75 21 14 2 34 9 45 14 11 5 40 15 65 21 25 7 50 14 55 15 14 4
284 97 375 129 41 15 79 30 85 33 20 13 35 10 35 -7 0 -10 3 -21 7 -25 4 -3 8
-12 9 -19 3 -23 44 -106 74 -150 81 -121 239 -229 365 -252 11 -2 20 -4 20 -5
0 -11 190 -16 223 -6 12 4 36 9 52 11 37 5 165 65 208 98 39 30 100 86 122
113 25 31 80 124 74 124 -4 0 -2 6 3 13 9 10 31 69 39 102 12 49 15 66 14 110
-1 130 -21 185 -97 259 -26 26 -52 46 -60 46 -7 0 -13 5 -13 10 0 6 -3 10 -7
9 -17 -2 -53 14 -53 24 0 6 3 8 6 4 3 -3 20 2 37 12 18 10 75 40 127 67 52 27
101 55 108 61 7 7 19 13 26 13 6 0 18 6 25 13 6 6 15 12 19 12 10 0 208 117
377 221 225 140 521 346 682 474 84 67 107 86 124 102 11 10 19 16 19 13 0 -2
10 6 23 18 12 12 49 45 82 72 63 53 346 333 406 400 28 33 133 161 182 225
115 147 280 452 332 615 9 28 19 57 22 65 3 8 7 20 8 25 2 6 8 28 13 50 6 22
14 55 17 74 3 19 7 37 9 40 19 30 28 399 13 498 -8 52 -33 153 -55 218 -22 66
-22 65 13 101 106 108 184 278 199 434 2 19 5 40 6 45 1 6 2 12 0 15 -1 3 -3
23 -6 45 -2 22 -6 51 -8 65 -7 42 -37 123 -57 152 -11 14 -19 29 -19 32 0 4
-11 19 -25 34 -22 23 -32 42 -22 42 30 0 126 26 152 41 82 48 91 161 23 294
-59 118 -170 238 -297 324 -20 14 -37 28 -39 33 -2 4 -11 8 -21 8 -29 0 -39
19 -30 58 22 101 6 238 -45 377 -42 113 -60 155 -68 155 -5 0 -8 6 -8 14 0 21
-93 157 -136 198 -66 63 -108 98 -121 98 -6 0 -13 4 -15 8 -5 13 -130 68 -183
81 -27 6 -61 14 -75 18 -42 11 -354 11 -367 1 -7 -6 -13 -8 -13 -6 0 3 -18 2
-41 -2 -44 -8 -69 6 -69 39 0 10 -3 21 -7 25 -5 4 -8 11 -8 14 -2 19 -30 82
-37 82 -4 0 -7 3 -6 8 3 11 -32 80 -48 93 -8 6 -14 18 -14 25 0 8 -4 14 -10
14 -5 0 -10 5 -10 11 0 12 -125 197 -178 264 -5 6 -22 29 -38 51 -16 22 -35
46 -42 54 -7 8 -20 25 -30 36 -115 142 -165 197 -312 344 -162 162 -202 197
-375 335 -55 44 -109 88 -119 98 -11 9 -26 17 -33 17 -7 0 -13 4 -13 8 0 4
-15 16 -32 27 -18 10 -35 21 -38 25 -10 13 -99 70 -109 70 -6 0 -11 5 -11 10
0 6 -7 10 -15 10 -8 0 -15 5 -15 10 0 6 -4 10 -10 10 -5 0 -37 18 -71 40 -34
22 -68 40 -76 40 -7 0 -13 5 -13 10 0 6 -6 10 -14 10 -7 0 -19 7 -26 15 -7 8
-16 13 -20 10 -5 -3 -10 -2 -12 3 -1 4 -43 27 -93 52 -49 25 -92 47 -95 50 -3
3 -9 6 -15 7 -5 1 -49 20 -97 42 -48 23 -90 41 -93 41 -3 0 -24 8 -48 19 -23
10 -67 28 -97 39 -30 11 -64 24 -75 28 -11 4 -22 8 -25 9 -3 1 -18 7 -34 14
-16 6 -31 9 -34 7 -2 -3 -16 1 -31 8 -22 11 -92 34 -196 63 -11 3 -28 6 -37 6
-10 1 -18 4 -18 7 0 4 -6 7 -12 7 -12 1 -77 15 -133 28 -11 3 -29 7 -40 9 -11
2 -31 7 -45 10 -33 8 -77 16 -120 21 -19 3 -46 7 -60 10 -66 14 -141 24 -225
30 -27 2 -50 4 -50 5 0 1 -22 3 -50 4 -27 1 -54 4 -60 7 -11 7 -572 9 -578 3z"/>
</g>
</svg>
